<svg width="520" height="476" viewBox="0 0 520 476" fill="none" xmlns="http://www.w3.org/2000/svg">
<path d="M527.984 -133.5L703.786 171L703.381 171.701L703.38 171.702L527.981 475.5H176.382L0.577148 170.999L0.984375 170.299L0.985352 170.298L176.374 -133.5H527.984ZM177.854 -130.437L3.97266 170.751L3.8291 171.001L3.97266 171.251L177.859 472.434L178.004 472.684H178.292L526.068 472.686H526.357L526.501 472.436L700.392 171.248L700.536 170.998L700.392 170.748L526.504 -130.433L526.359 -130.683H526.071L178.287 -130.687H177.999L177.854 -130.437Z" fill="#27272A" stroke="#09090B"/>
<path d="M700.175 164.748L699.77 165.449V165.45L531.588 456.747L194.424 456.746L25.8379 164.747L26.2451 164.046L26.2461 164.045L194.421 -127.247L531.59 -127.251L700.175 164.748ZM196.334 -124.433H196.045L195.901 -124.183L29.2334 164.499L29.0898 164.749L29.2334 164.999L195.903 453.679L196.048 453.929H196.337L529.676 453.934H529.965L530.108 453.684L696.781 164.996L696.925 164.746L696.781 164.496L530.111 -124.184L529.967 -124.434H529.679L196.334 -124.433Z" fill="#27272A" stroke="#09090B"/>
<path d="M696.57 158.497L696.163 159.198L696.162 159.2L535.196 437.991L212.472 437.993L51.1016 158.497L51.5088 157.797L51.5098 157.796L212.467 -120.997L535.201 -120.999L696.57 158.497ZM213.946 -117.933L54.498 158.249L54.3535 158.499L54.498 158.749L213.949 434.927L214.093 435.177H214.382L533.284 435.18H533.573L533.717 434.93L693.174 158.746L693.317 158.496L693.174 158.246L533.723 -117.932L533.578 -118.182H533.289L214.379 -118.183H214.091L213.946 -117.933Z" fill="#27272A" stroke="#09090B"/>
<path d="M692.96 152.245L692.553 152.946V152.948L538.808 419.24L230.51 419.244L76.3574 152.248L76.7646 151.547L76.7656 151.546L230.512 -114.746L538.811 -114.75L692.96 152.245ZM231.992 -111.683L79.7529 151.999L79.6094 152.249L79.7529 152.499L231.987 416.178L232.131 416.428H537.185L537.328 416.178L689.566 152.494L689.711 152.244L689.566 151.994L537.331 -111.683L537.187 -111.933H232.136L231.992 -111.683Z" fill="#27272A" stroke="#09090B"/>
<path d="M689.35 145.994L688.944 146.695V146.696L542.415 400.489L248.551 400.49L101.62 145.999L102.027 145.297L102.028 145.296L248.554 -108.496L542.418 -108.498L689.35 145.994ZM250.033 -105.432L105.017 145.75L104.872 146L105.017 146.25L250.031 397.424L250.176 397.674H540.792L540.936 397.424L685.955 146.243L686.1 145.993L685.955 145.743L540.941 -105.43L540.797 -105.68H540.508L250.467 -105.682H250.178L250.033 -105.432Z" fill="#27272A" stroke="#09090B"/>
<path d="M685.741 139.746L685.336 140.447V140.448L546.024 381.736L266.598 381.74L126.881 139.745L127.288 139.045L127.289 139.044L266.598 -102.246L546.024 -102.249L685.741 139.746ZM268.078 -99.1816L130.277 139.497L130.133 139.747L130.277 139.997L268.075 378.672L268.22 378.922H544.401L544.546 378.672L682.347 139.994L682.491 139.744L682.347 139.494L544.546 -99.1816L544.401 -99.4316H268.222L268.078 -99.1816Z" fill="#27272A" stroke="#09090B"/>
<path d="M682.131 133.494L681.725 134.195V134.196L549.633 362.984L284.64 362.986L152.144 133.496L152.551 132.795L152.552 132.794L284.642 -95.9961L549.635 -95.9971L682.131 133.494ZM286.122 -92.9316L155.54 133.247L155.396 133.497L155.54 133.747L286.119 359.92L286.264 360.17H548.009L548.153 359.92L678.736 133.742L678.881 133.492L678.736 133.242L548.156 -92.9297L548.012 -93.1797H547.723L286.555 -93.1816H286.267L286.122 -92.9316Z" fill="#27272A" stroke="#09090B"/>
<path d="M678.525 127.243L678.118 127.944L678.117 127.946L553.243 344.232L302.688 344.234L177.405 127.243L177.813 126.543L177.814 126.542L302.688 -89.7461L553.243 -89.748L678.525 127.243ZM304.167 -86.6816L180.801 126.995L180.656 127.245L180.801 127.495L304.167 341.169L304.312 341.419H551.62L551.765 341.169L675.129 127.492L675.273 127.242L675.129 126.992L551.765 -86.6807L551.62 -86.9307H551.331L304.601 -86.9316H304.312L304.167 -86.6816Z" fill="#27272A" stroke="#09090B"/>
<path d="M674.914 120.992L674.507 121.693V121.694L556.852 325.481H320.729L202.668 120.994L203.076 120.293L203.077 120.292L320.731 -83.4956H556.854L674.914 120.992ZM322.212 -80.4312L206.063 120.746L205.919 120.996L206.063 121.246L322.209 322.415L322.354 322.665H322.643L554.939 322.667L555.228 322.667L555.372 322.417L671.521 121.241L671.665 120.991L671.521 120.741L555.375 -80.4282L555.23 -80.6782H554.941L322.645 -80.6812H322.356L322.212 -80.4312Z" fill="#27272A" stroke="#09090B"/>
<path d="M671.307 114.742L670.899 115.443V115.445L560.462 306.73L338.777 306.731L227.932 114.741L228.338 114.041L228.339 114.04L338.774 -77.2446L560.462 -77.2466L671.307 114.742ZM340.257 -74.1812L231.327 114.494L231.183 114.744L231.327 114.994L340.257 303.666L340.401 303.916H558.839L558.983 303.666L667.913 114.991L668.058 114.741L667.913 114.491L558.983 -74.1792L558.839 -74.4292H558.55L340.69 -74.4312H340.401L340.257 -74.1812Z" fill="#27272A" stroke="#09090B"/>
<path d="M667.695 108.49L667.29 109.192L564.069 287.978H356.817L253.193 108.491L253.6 107.791H253.601L356.817 -70.9946H564.068L667.695 108.49ZM358.298 -67.9302L256.589 108.244L256.444 108.494L256.589 108.744L358.298 284.911L358.442 285.161H358.73L562.156 285.164H562.445L562.59 284.914L664.301 108.739L664.445 108.489L664.301 108.239L562.59 -67.9272L562.445 -68.1772H562.156L358.73 -68.1802H358.442L358.298 -67.9302Z" fill="#27272A" stroke="#09090B"/>
<path d="M664.089 102.244L663.684 102.944L663.683 102.945L567.681 269.224L374.866 269.225L278.455 102.239L278.861 101.539L278.862 101.538L374.863 -64.7446L567.678 -64.7456L664.089 102.244ZM376.344 -61.6802L281.851 101.992L281.706 102.242L281.851 102.492L376.346 266.16L376.49 266.41H376.779L565.769 266.412H566.057L566.201 266.162L660.694 102.492L660.839 102.242L660.694 101.992L566.198 -61.6782L566.055 -61.9282H565.766L376.776 -61.9302H376.488L376.344 -61.6802Z" fill="#27272A" stroke="#09090B"/>
<path d="M571.289 -58.4937L660.481 95.9907L634.782 140.496L571.288 250.471L392.906 250.473L303.715 95.9888L392.908 -58.4937H571.289ZM394.389 -55.4302L307.111 95.7437L306.967 95.9937L307.111 96.2437L394.386 247.408L394.53 247.658H394.819L569.376 247.66H569.665L569.81 247.41L657.084 96.2388L657.229 95.9888L657.084 95.7388L569.81 -55.4263L569.665 -55.6763H569.376L394.821 -55.6802H394.533L394.389 -55.4302Z" fill="#27272A" stroke="#09090B"/>
<path d="M656.873 89.7402L656.466 90.4414L656.465 90.4434L574.896 231.723L410.954 231.725L328.979 89.7412L410.951 -52.2383L574.899 -52.2412L656.873 89.7402ZM412.432 -49.1748L332.375 89.4951L332.23 89.7451L332.375 89.9941L412.432 228.658L412.575 228.908H573.273L573.418 228.658L653.477 89.9893L653.621 89.7393L653.477 89.4893L573.42 -49.1738L573.276 -49.4238H572.987L412.864 -49.4248H412.575L412.432 -49.1748Z" fill="#27272A" stroke="#09090B"/>
<path d="M653.262 83.4883L652.854 84.1895L652.854 84.1914L578.501 212.969L428.995 212.971L354.239 83.4873L354.646 82.7871L354.646 82.7861L428.995 -45.9883L578.507 -45.9922L653.262 83.4883ZM430.908 -43.1738H430.619L430.476 -42.9238L357.635 83.2402L357.49 83.4902L357.635 83.7402L430.476 209.904L430.619 210.154H576.878L577.022 209.904L649.868 83.7373L650.013 83.4873L649.868 83.2373L577.027 -42.9248L576.883 -43.1748H576.595L430.908 -43.1738Z" fill="#27272A" stroke="#09090B"/>
<path d="M649.653 77.2365L582.113 194.217H447.04L379.502 77.2374L447.04 -39.7382L582.115 -39.7401L649.653 77.2365ZM448.521 -36.6747L382.898 76.9923L382.754 77.2423L382.898 77.4923L448.521 191.151L448.665 191.401H448.953L580.2 191.402H580.489L580.634 191.152L646.258 77.4855L646.402 77.2355L646.258 76.9855L580.636 -36.6727L580.491 -36.9227H580.203L448.953 -36.9247H448.665L448.521 -36.6747Z" fill="#27272A" stroke="#09090B"/>
<path d="M646.045 70.9893L585.723 175.463L465.085 175.464L404.763 70.9854L465.085 -33.4883L585.723 -33.4922L646.045 70.9893ZM466.565 -30.4229L408.161 70.7373L408.018 70.9873L408.161 71.2373L466.565 172.398L466.71 172.648H466.998L583.809 172.65H584.097L584.241 172.4L642.65 71.2373L642.795 70.9873L642.65 70.7373L584.244 -30.4229L584.1 -30.6729H466.71L466.565 -30.4229Z" fill="#27272A" stroke="#09090B"/>
<path d="M642.437 64.7368L589.33 156.711L483.13 156.712L430.025 64.7358L483.13 -27.2378L589.333 -27.2397L642.437 64.7368ZM484.609 -24.1733L433.424 64.4878L433.28 64.7378L433.424 64.9878L484.609 153.644L484.754 153.894H485.043L587.418 153.899H587.707L587.852 153.649L639.039 64.9858L639.184 64.7358L639.039 64.4858L587.854 -24.1733L587.71 -24.4233H484.754L484.609 -24.1733Z" fill="#27272A" stroke="#09090B"/>
<path d="M638.829 58.4872L592.94 137.959L501.172 137.963L455.283 58.4852L501.172 -20.9884L592.94 -20.9904L638.829 58.4872ZM502.651 -17.924L458.682 58.2382L458.538 58.4882L458.682 58.7382L502.651 134.897L502.796 135.147H591.317L591.462 134.897L635.432 58.7352L635.575 58.4852L635.432 58.2352L591.462 -17.924L591.317 -18.174H502.796L502.651 -17.924Z" fill="#27272A" stroke="#09090B"/>
<path d="M635.219 52.2349L596.549 119.208L519.217 119.209L480.547 52.2358L519.217 -14.7358L596.552 -14.7378L635.219 52.2349ZM520.697 -11.6733L483.945 51.9888L483.802 52.2388L483.945 52.4888L520.694 116.143L520.839 116.393H521.127L594.637 116.396H594.926L595.07 116.146L631.824 52.4839L631.968 52.2339L631.824 51.9839L595.072 -11.6714L594.929 -11.9214H594.64L521.13 -11.9233H520.841L520.697 -11.6733Z" fill="#27272A" stroke="#09090B"/>
<path d="M631.611 45.9854L600.16 100.456L537.262 100.457L505.811 45.9834L537.262 -8.48633L600.158 -8.48828L631.611 45.9854ZM538.742 -5.42188L509.207 45.7363L509.062 45.9863L509.207 46.2363L538.742 97.3916L538.887 97.6416H539.175L598.248 97.6436H598.537L598.682 97.3936L628.217 46.2334L628.36 45.9834L628.217 45.7334L598.682 -5.42188L598.537 -5.67188H538.887L538.742 -5.42188Z" fill="#27272A" stroke="#09090B"/>
</svg>
